<svg xmlns="http://www.w3.org/2000/svg" xmlns:xlink="http://www.w3.org/1999/xlink" width="500" zoomAndPan="magnify" viewBox="0 0 375 374.999991" height="500" preserveAspectRatio="xMidYMid meet" version="1.0"><defs><g/><clipPath id="57e2a5313d"><path d="M 52.75 51.890625 L 323.40625 51.890625 L 323.40625 322.546875 L 52.75 322.546875 Z M 52.75 51.890625 " clip-rule="nonzero"/></clipPath><clipPath id="ab5f52ebe5"><path d="M 188.078125 51.890625 C 113.339844 51.890625 52.75 112.480469 52.75 187.21875 C 52.75 261.957031 113.339844 322.546875 188.078125 322.546875 C 262.816406 322.546875 323.40625 261.957031 323.40625 187.21875 C 323.40625 112.480469 262.816406 51.890625 188.078125 51.890625 Z M 188.078125 51.890625 " clip-rule="nonzero"/></clipPath><clipPath id="a92e54d473"><path d="M 0 0 L 360 0 L 360 307 L 0 307 Z M 0 0 " clip-rule="nonzero"/></clipPath><clipPath id="59485fc875"><path d="M -22.015625 90.625 L 278.785156 -22.558594 L 359.949219 193.140625 L 59.148438 306.324219 Z M -22.015625 90.625 " clip-rule="nonzero"/></clipPath><clipPath id="f7f410f20e"><path d="M -22.015625 90.625 L 278.164062 -22.324219 L 359.328125 193.375 L 59.148438 306.324219 Z M -22.015625 90.625 " clip-rule="nonzero"/></clipPath></defs><rect x="-37.5" width="450" fill="#ffffff" y="-37.499999" height="449.999989" fill-opacity="1"/><rect x="-37.5" width="450" fill="#000000" y="-37.499999" height="449.999989" fill-opacity="1"/><g clip-path="url(#57e2a5313d)"><g clip-path="url(#ab5f52ebe5)"><path stroke-linecap="butt" transform="matrix(0.75, 0, 0, 0.75, 52.750115, 51.890548)" fill="none" stroke-linejoin="miter" d="M 180.437359 0.000102943 C 80.786311 0.000102943 -0.000152848 80.786567 -0.000152848 180.437615 C -0.000152848 280.088663 80.786311 360.875127 180.437359 360.875127 C 280.088407 360.875127 360.874871 280.088663 360.874871 180.437615 C 360.874871 80.786567 280.088407 0.000102943 180.437359 0.000102943 Z M 180.437359 0.000102943 " stroke="#fbfaf9" stroke-width="2" stroke-opacity="1" stroke-miterlimit="4"/></g></g><g clip-path="url(#a92e54d473)"><g clip-path="url(#59485fc875)"><g clip-path="url(#f7f410f20e)"><path fill="#000000" d="M -22.015625 90.625 L 277.941406 -22.242188 L 359.105469 193.457031 L 59.148438 306.324219 Z M -22.015625 90.625 " fill-opacity="1" fill-rule="nonzero"/></g></g></g><g fill="#fbfaf9" fill-opacity="1"><g transform="translate(109.628399, 256.169494)"><g><path d="M 143.59375 -116.867188 C 145.421875 -123.007812 145.753906 -125.996094 149.074219 -132.804688 L 145.089844 -132.804688 C 144.589844 -125.996094 143.097656 -123.007812 141.269531 -116.703125 L 109.230469 -5.476562 L 84 -94.289062 L 90.472656 -116.867188 C 92.296875 -123.007812 92.796875 -125.996094 96.117188 -132.804688 L 92.132812 -132.804688 C 91.632812 -125.996094 90.140625 -123.007812 88.316406 -116.703125 L 82.835938 -97.941406 L 77.691406 -116.203125 C 75.699219 -123.007812 74.703125 -125.996094 74.203125 -132.804688 L 61.253906 -132.804688 C 64.574219 -126.328125 65.738281 -123.175781 67.730469 -116.203125 L 77.855469 -80.511719 L 56.277344 -5.476562 L 24.570312 -116.203125 C 22.742188 -123.007812 21.746094 -125.996094 21.25 -132.804688 L 8.300781 -132.804688 C 11.621094 -126.328125 12.78125 -123.175781 14.609375 -116.203125 L 47.808594 0 L 59.429688 0 C 58.433594 -2.820312 58.269531 -4.648438 58.933594 -7.304688 L 78.851562 -76.859375 L 100.765625 0 L 112.550781 0 C 111.390625 -2.820312 111.390625 -4.648438 112.054688 -7.304688 Z M 143.59375 -116.867188 "/></g></g></g></svg>